<svg width="512" height="512" viewBox="0 0 512 512" fill="none" xmlns="http://www.w3.org/2000/svg"><path width="22" height="22" fill="none" d="M0 0H512V512H0V0z"/><g clip-path="url(#clip0_2_2)"><path width="1440" height="1366" transform="translate(-30 -31)" fill="none" d="M0 0H33512.727V31790.545H0V0z"/><path width="213" height="1366" transform="translate(-30 -31)" fill="none" d="M0 0H4957.091V31790.545H0V0z"/><path d="M512 256c0 141.382 -114.618 256 -256 256S0 397.382 0 256 114.618 0 256 0c41.891 0 81.455 10.077 116.364 27.927q0.559 0.256 1.094 0.559C395.38 39.68 431.942 58.368 512 69.818H256c-102.54 0 -185.647 83.642 -185.647 186.182a185.647 185.647 0 1 0 357.702 -69.818c-9.379 -23.156 -4.864 -51.782 15.36 -66.49l23.505 -17.105c0.233 5.12 1.489 10.426 3.677 13.777A254.836 254.836 0 0 1 512 256" fill="#FF2741"/><path cx="11" cy="11" r="2" fill="#FF2741" d="M302.545 256A46.545 46.545 0 0 1 256 302.545A46.545 46.545 0 0 1 209.455 256A46.545 46.545 0 0 1 302.545 256z"/></g><defs><clipPath id="clip0_2_2"><path width="1440" height="1366" fill="none" transform="translate(-30 -31)" d="M0 0H33512.727V31790.545H0V0z"/></clipPath></defs></svg>