<svg xmlns="http://www.w3.org/2000/svg" width="22" height="22" viewBox="0 0 22 22" fill="none">
<path d="M22 11C22 17.0751 17.0751 22 11 22C4.92487 22 0 17.0751 0 11C0 4.92487 4.92487 0 11 0C12.8004 0 14.4999 0.432557 16 1.19942C16.0157 1.20742 16.0315 1.21552 16.0475 1.22371C16.9883 1.70502 18.5586 2.50837 22 3H11C6.59435 3 3.02286 6.59435 3.02286 11C3.02286 15.4057 6.59435 18.9771 11 18.9771C15.4057 18.9771 18.9771 15.4057 18.9771 11C18.9771 9.93886 18.7699 8.92611 18.3938 8C17.9896 7.00476 18.1841 5.77521 19.0528 5.1434L20.0636 4.40827C20.0725 4.62829 20.1269 4.85553 20.2211 5C21.3462 6.72556 22 8.78642 22 11Z" fill="#FF2741"/>
<circle cx="11" cy="11" r="2" fill="#FF2741"/>
</svg>